<svg width="155" height="199" viewBox="0 0 155 199" fill="none" xmlns="http://www.w3.org/2000/svg">
<path d="M151.863 46.3427C150.495 34.6532 147.481 23.2157 142.911 12.3701C142.391 11.231 134.917 0.539566 135.177 0C123.007 34.0127 105.561 51.7384 105.561 51.7384C95.106 47.4448 83.83 45.521 72.5432 46.1053C61.2564 46.6897 50.2393 49.7677 40.2841 55.118C30.3289 60.4683 21.6828 67.958 14.9676 77.0486C8.25238 86.1392 3.63484 96.6048 1.44701 107.693C-0.740813 118.781 -0.444575 130.216 2.31441 141.176C5.07339 152.136 10.2266 162.349 17.4034 171.079C24.5803 179.81 33.6026 186.842 43.8215 191.67C54.0404 196.497 65.202 199.001 76.5039 199C95.3329 198.841 113.455 191.807 127.459 179.219C141.463 166.632 150.384 149.36 152.543 130.655C154.122 115.827 154.421 100.539 154.681 85.6511C154.752 72.4955 153.81 59.3538 151.863 46.3427ZM54.7014 117.685C56.2202 104.236 67.2713 94.4641 79.4016 95.823C91.5318 97.1819 100.125 109.172 98.6061 122.621C97.0874 136.071 86.0562 145.783 73.926 144.464C61.7957 143.145 53.2026 131.115 54.7014 117.685ZM127.743 163.868C122.857 170.53 116.67 176.132 109.557 180.335C102.414 184.47 94.456 187 86.2361 187.749C78.1556 188.399 70.0246 187.546 62.2554 185.231C70.1306 185.981 78.0673 185.786 85.8964 184.652C93.5295 183.398 100.87 180.763 107.559 176.878C114.244 172.912 120.221 167.861 125.245 161.93C130.369 155.898 134.7 149.236 138.134 142.106C136.109 149.963 132.58 157.353 127.743 163.868Z" fill="white"/>
</svg>
