<svg width="140" height="148" viewBox="0 0 140 148" fill="none" xmlns="http://www.w3.org/2000/svg">
<path d="M70 4L130.622 39V109L70 144L9.37822 109V39L70 4Z" fill="#0184EF" stroke="#B8BFD0" stroke-width="8" stroke-linejoin="round"/>
<path d="M81.3851 89.6C82.3851 89.6 83.1751 89.88 83.7551 90.44C84.3351 90.98 84.6251 91.7 84.6251 92.6V98H53.9051V95C53.9051 94.42 54.0251 93.8 54.2651 93.14C54.5051 92.48 54.9251 91.88 55.5251 91.34L68.1251 78.65C69.2051 77.57 70.1451 76.54 70.9451 75.56C71.7451 74.58 72.4051 73.62 72.9251 72.68C73.4451 71.72 73.8351 70.77 74.0951 69.83C74.3551 68.87 74.4851 67.86 74.4851 66.8C74.4851 65.06 74.0651 63.73 73.2251 62.81C72.4051 61.87 71.1451 61.4 69.4451 61.4C68.0651 61.4 66.8951 61.77 65.9351 62.51C64.9951 63.23 64.3451 64.13 63.9851 65.21C63.5651 66.31 63.0151 67.04 62.3351 67.4C61.6551 67.76 60.6851 67.84 59.4251 67.64L54.5051 66.77C54.8251 64.59 55.4351 62.69 56.3351 61.07C57.2551 59.45 58.3851 58.1 59.7251 57.02C61.0851 55.94 62.6351 55.14 64.3751 54.62C66.1151 54.08 67.9851 53.81 69.9851 53.81C72.1451 53.81 74.0851 54.13 75.8051 54.77C77.5451 55.39 79.0251 56.26 80.2451 57.38C81.4651 58.5 82.3951 59.84 83.0351 61.4C83.6951 62.94 84.0251 64.64 84.0251 66.5C84.0251 68.1 83.7951 69.58 83.3351 70.94C82.8951 72.3 82.2851 73.6 81.5051 74.84C80.7251 76.06 79.8151 77.25 78.7751 78.41C77.7551 79.55 76.6651 80.71 75.5051 81.89L66.9551 90.65C68.0551 90.31 69.1451 90.05 70.2251 89.87C71.3051 89.69 72.3051 89.6 73.2251 89.6H81.3851Z" fill="white"/>
</svg>
