<svg width="1440" height="326" viewBox="0 0 1440 326" fill="none" xmlns="http://www.w3.org/2000/svg">
<g clip-path="url(#clip0_981_18651)" filter="url(#filter0_d_981_18651)">
<rect x="-41.1973" y="204.886" width="1489.59" height="40" transform="rotate(-5 -41.1973 204.886)" fill="#FFEB33"/>
<path d="M65.2073 195.577L18.8838 239.782L-11.5001 242.441L35.8196 198.148L65.2073 195.577Z" fill="black"/>
<path d="M594.187 149.297L547.863 193.503L517.479 196.161L564.799 151.868L594.187 149.297Z" fill="black"/>
<path d="M123.983 190.435L77.6592 234.64L47.2753 237.298L94.595 193.006L123.983 190.435Z" fill="black"/>
<path d="M652.962 144.155L606.639 188.36L576.255 191.019L623.574 146.726L652.962 144.155Z" fill="black"/>
<path d="M182.758 185.292L136.435 229.498L106.051 232.156L153.37 187.863L182.758 185.292Z" fill="black"/>
<path d="M711.738 139.013L665.414 183.218L635.03 185.877L682.35 141.584L711.738 139.013Z" fill="black"/>
<path d="M241.534 180.15L195.21 224.356L164.826 227.014L212.146 182.721L241.534 180.15Z" fill="black"/>
<path d="M770.513 133.87L724.19 178.076L693.806 180.734L741.125 136.442L770.513 133.87Z" fill="black"/>
<path d="M1123.17 103.017L1076.84 147.223L1046.46 149.881L1093.78 105.589L1123.17 103.017Z" fill="black"/>
<path d="M300.31 175.008L253.986 219.213L223.602 221.872L270.922 177.579L300.31 175.008Z" fill="black"/>
<path d="M829.288 128.728L782.965 172.934L752.581 175.592L799.901 131.299L829.288 128.728Z" fill="black"/>
<path d="M1181.94 97.8751L1135.62 142.081L1105.23 144.739L1152.55 100.446L1181.94 97.8751Z" fill="black"/>
<path d="M359.085 169.866L312.762 214.071L282.378 216.73L329.698 172.437L359.085 169.866Z" fill="black"/>
<path d="M888.065 123.586L841.741 167.792L811.357 170.45L858.677 126.157L888.065 123.586Z" fill="black"/>
<path d="M1240.72 92.733L1194.39 136.939L1164.01 139.597L1211.33 95.3041L1240.72 92.733Z" fill="black"/>
<path d="M476.636 159.581L430.313 203.787L399.929 206.445L447.248 162.152L476.636 159.581Z" fill="black"/>
<path d="M1005.62 113.302L959.292 157.507L928.908 160.166L976.228 115.873L1005.62 113.302Z" fill="black"/>
<path d="M1358.27 82.4486L1311.94 126.654L1281.56 129.312L1328.88 85.0197L1358.27 82.4486Z" fill="black"/>
<path d="M417.861 164.724L371.537 208.929L341.153 211.588L388.473 167.295L417.861 164.724Z" fill="black"/>
<path d="M946.84 118.444L900.517 162.649L870.133 165.308L917.452 121.015L946.84 118.444Z" fill="black"/>
<path d="M1299.49 87.5907L1253.17 131.796L1222.79 134.454L1270.1 90.1617L1299.49 87.5907Z" fill="black"/>
<path d="M535.411 154.439L489.088 198.645L458.704 201.303L506.024 157.01L535.411 154.439Z" fill="black"/>
<path d="M1064.39 108.159L1018.07 152.365L987.683 155.023L1035 110.731L1064.39 108.159Z" fill="black"/>
<path d="M1417.04 77.3065L1370.72 121.512L1340.34 124.17L1387.66 79.8776L1417.04 77.3065Z" fill="black"/>
<path d="M1475.82 72.1641L1429.5 116.37L1399.11 119.028L1446.43 74.7352L1475.82 72.1641Z" fill="black"/>
<path d="M6.43196 200.719L-39.8916 244.924L-70.2755 247.583L-22.9558 203.29L6.43196 200.719Z" fill="black"/>
</g>
<g clip-path="url(#clip1_981_18651)" filter="url(#filter1_d_981_18651)">
<rect x="-24.6436" y="-4.63721" width="1489.59" height="40" transform="rotate(11 -24.6436 -4.63721)" fill="#FFEB33"/>
<path d="M80.2056 15.7434L23.4918 45.4681L-6.44779 39.6484L51.2476 10.1146L80.2056 15.7434Z" fill="black"/>
<path d="M601.45 117.063L544.736 146.788L514.796 140.968L572.492 111.434L601.45 117.063Z" fill="black"/>
<path d="M138.122 27.001L81.4079 56.7256L51.4682 50.906L109.164 21.3721L138.122 27.001Z" fill="black"/>
<path d="M659.366 128.321L602.652 158.045L572.712 152.226L630.408 122.692L659.366 128.321Z" fill="black"/>
<path d="M196.038 38.2588L139.324 67.9834L109.384 62.1638L167.08 32.6299L196.038 38.2588Z" fill="black"/>
<path d="M717.282 139.578L660.568 169.303L630.628 163.483L688.324 133.95L717.282 139.578Z" fill="black"/>
<path d="M253.954 49.5166L197.24 79.2413L167.3 73.4216L224.996 43.8878L253.954 49.5166Z" fill="black"/>
<path d="M775.198 150.836L718.484 180.561L688.544 174.741L746.24 145.207L775.198 150.836Z" fill="black"/>
<path d="M1122.69 218.383L1065.98 248.107L1036.04 242.288L1093.74 212.754L1122.69 218.383Z" fill="black"/>
<path d="M311.87 60.7742L255.156 90.4988L225.216 84.6792L282.912 55.1453L311.87 60.7742Z" fill="black"/>
<path d="M833.114 162.094L776.4 191.818L746.46 185.999L804.156 156.465L833.114 162.094Z" fill="black"/>
<path d="M1180.61 229.64L1123.9 259.365L1093.96 253.545L1151.65 224.011L1180.61 229.64Z" fill="black"/>
<path d="M369.786 72.032L313.072 101.757L283.132 95.937L340.828 66.4031L369.786 72.032Z" fill="black"/>
<path d="M891.03 173.352L834.316 203.076L804.376 197.257L862.072 167.723L891.03 173.352Z" fill="black"/>
<path d="M1238.53 240.898L1181.81 270.623L1151.87 264.803L1209.57 235.269L1238.53 240.898Z" fill="black"/>
<path d="M485.618 94.5474L428.904 124.272L398.964 118.452L456.66 88.9185L485.618 94.5474Z" fill="black"/>
<path d="M1006.86 195.867L950.148 225.592L920.208 219.772L977.904 190.238L1006.86 195.867Z" fill="black"/>
<path d="M1354.36 263.413L1297.64 293.138L1267.7 287.318L1325.4 257.784L1354.36 263.413Z" fill="black"/>
<path d="M427.702 83.2898L370.988 113.014L341.048 107.195L398.744 77.6609L427.702 83.2898Z" fill="black"/>
<path d="M948.946 184.609L892.232 214.334L862.292 208.514L919.988 178.981L948.946 184.609Z" fill="black"/>
<path d="M1296.44 252.156L1239.73 281.88L1209.79 276.061L1267.48 246.527L1296.44 252.156Z" fill="black"/>
<path d="M543.534 105.805L486.82 135.53L456.88 129.71L514.576 100.176L543.534 105.805Z" fill="black"/>
<path d="M1064.78 207.125L1008.06 236.849L978.124 231.03L1035.82 201.496L1064.78 207.125Z" fill="black"/>
<path d="M1412.27 274.671L1355.56 304.396L1325.62 298.576L1383.32 269.042L1412.27 274.671Z" fill="black"/>
<path d="M1470.19 285.929L1413.48 315.654L1383.54 309.834L1441.23 280.3L1470.19 285.929Z" fill="black"/>
<path d="M22.2895 4.48561L-34.4242 34.2103L-64.3638 28.3906L-6.66846 -1.14325L22.2895 4.48561Z" fill="black"/>
</g>
<defs>
<filter id="filter0_d_981_18651" x="-19.9824" y="75.5173" width="1464.96" height="175.01" filterUnits="userSpaceOnUse" color-interpolation-filters="sRGB">
<feFlood flood-opacity="0" result="BackgroundImageFix"/>
<feColorMatrix in="SourceAlpha" type="matrix" values="0 0 0 0 0 0 0 0 0 0 0 0 0 0 0 0 0 0 127 0" result="hardAlpha"/>
<feOffset dy="4"/>
<feGaussianBlur stdDeviation="2"/>
<feComposite in2="hardAlpha" operator="out"/>
<feColorMatrix type="matrix" values="0 0 0 0 0 0 0 0 0 0 0 0 0 0 0 0 0 0 0.3 0"/>
<feBlend mode="normal" in2="BackgroundImageFix" result="effect1_dropShadow_981_18651"/>
<feBlend mode="normal" in="SourceGraphic" in2="effect1_dropShadow_981_18651" result="shape"/>
</filter>
<filter id="filter1_d_981_18651" x="-11.4297" y="0.192383" width="1447.85" height="325.661" filterUnits="userSpaceOnUse" color-interpolation-filters="sRGB">
<feFlood flood-opacity="0" result="BackgroundImageFix"/>
<feColorMatrix in="SourceAlpha" type="matrix" values="0 0 0 0 0 0 0 0 0 0 0 0 0 0 0 0 0 0 127 0" result="hardAlpha"/>
<feOffset dy="4"/>
<feGaussianBlur stdDeviation="2"/>
<feComposite in2="hardAlpha" operator="out"/>
<feColorMatrix type="matrix" values="0 0 0 0 0 0 0 0 0 0 0 0 0 0 0 0 0 0 0.3 0"/>
<feBlend mode="normal" in2="BackgroundImageFix" result="effect1_dropShadow_981_18651"/>
<feBlend mode="normal" in="SourceGraphic" in2="effect1_dropShadow_981_18651" result="shape"/>
</filter>
<clipPath id="clip0_981_18651">
<rect width="1459.03" height="40" fill="white" transform="translate(-15.9824 202.68) rotate(-5)"/>
</clipPath>
<clipPath id="clip1_981_18651">
<rect width="1459.03" height="40" fill="white" transform="translate(0.203125 0.192383) rotate(11)"/>
</clipPath>
</defs>
</svg>
