<svg width="140" height="148" viewBox="0 0 140 148" fill="none" xmlns="http://www.w3.org/2000/svg">
<path d="M70 4L130.622 39V109L70 144L9.37822 109V39L70 4Z" fill="#0184EF" stroke="#B8BFD0" stroke-width="8" stroke-linejoin="round"/>
<path d="M54.7451 66.77C55.0651 64.59 55.6751 62.69 56.5751 61.07C57.4951 59.45 58.6251 58.1 59.9651 57.02C61.3251 55.94 62.8751 55.14 64.6151 54.62C66.3551 54.08 68.2251 53.81 70.2251 53.81C72.3851 53.81 74.3051 54.12 75.9851 54.74C77.6651 55.34 79.0851 56.16 80.2451 57.2C81.4051 58.24 82.2851 59.45 82.8851 60.83C83.4851 62.19 83.7851 63.63 83.7851 65.15C83.7851 66.53 83.6451 67.75 83.3651 68.81C83.0851 69.85 82.6651 70.76 82.1051 71.54C81.5651 72.3 80.8851 72.95 80.0651 73.49C79.2651 74.01 78.3451 74.45 77.3051 74.81C82.1451 76.51 84.5651 79.81 84.5651 84.71C84.5651 87.03 84.1451 89.05 83.3051 90.77C82.4651 92.49 81.3351 93.92 79.9151 95.06C78.5151 96.2 76.8851 97.06 75.0251 97.64C73.1651 98.2 71.2251 98.48 69.2051 98.48C67.1251 98.48 65.2751 98.26 63.6551 97.82C62.0351 97.36 60.5951 96.66 59.3351 95.72C58.0751 94.76 56.9651 93.54 56.0051 92.06C55.0651 90.58 54.2451 88.82 53.5451 86.78L57.6851 85.1C58.7651 84.68 59.7651 84.57 60.6851 84.77C61.6051 84.97 62.2651 85.43 62.6651 86.15C63.5651 87.81 64.5151 89.02 65.5151 89.78C66.5351 90.52 67.7251 90.89 69.0851 90.89C70.1251 90.89 71.0251 90.72 71.7851 90.38C72.5651 90.02 73.2051 89.57 73.7051 89.03C74.2251 88.47 74.6151 87.84 74.8751 87.14C75.1351 86.44 75.2651 85.73 75.2651 85.01C75.2651 84.07 75.1951 83.23 75.0551 82.49C74.9351 81.73 74.5751 81.08 73.9751 80.54C73.3751 80 72.4651 79.59 71.2451 79.31C70.0451 79.01 68.3651 78.86 66.2051 78.86V72.44C68.0251 72.44 69.4951 72.3 70.6151 72.02C71.7351 71.74 72.5951 71.36 73.1951 70.88C73.8151 70.38 74.2251 69.78 74.4251 69.08C74.6251 68.38 74.7251 67.61 74.7251 66.77C74.7251 65.05 74.3051 63.73 73.4651 62.81C72.6451 61.87 71.3851 61.4 69.6851 61.4C68.3051 61.4 67.1351 61.77 66.1751 62.51C65.2351 63.23 64.5851 64.13 64.2251 65.21C63.8051 66.31 63.2551 67.04 62.5751 67.4C61.8951 67.76 60.9251 67.84 59.6651 67.64L54.7451 66.77Z" fill="white"/>
</svg>
