<svg width="140" height="148" viewBox="0 0 140 148" fill="none" xmlns="http://www.w3.org/2000/svg">
<path d="M70 4L130.622 39V109L70 144L9.37822 109V39L70 4Z" fill="#0184EF" stroke="#B8BFD0" stroke-width="8" stroke-linejoin="round"/>
<path d="M83.6351 91.28V98H58.7351V91.28H67.1351V69.23C67.1351 68.67 67.1451 68.11 67.1651 67.55C67.1851 66.97 67.2151 66.39 67.2551 65.81L62.2751 69.95C61.8351 70.29 61.3951 70.5 60.9551 70.58C60.5351 70.64 60.1351 70.64 59.7551 70.58C59.3751 70.5 59.0351 70.37 58.7351 70.19C58.4351 69.99 58.2151 69.79 58.0751 69.59L55.1351 65.69L68.7551 54.26H76.4351V91.28H83.6351Z" fill="white"/>
</svg>
