<svg width="250" height="75" viewBox="0 0 250 75" fill="none" xmlns="http://www.w3.org/2000/svg">
<g clip-path="url(#clip0_535_15598)">
<path d="M170.682 13.5459H154.683L139.998 58.6773H152.076L154.651 49.2894L167.386 49.5839L170.65 58.6773H185.342L170.682 13.5459ZM156.969 39.713L160.889 27.2214L165.139 39.713H156.969Z" fill="black"/>
<path d="M215.549 13.5459C215.339 13.5459 215.124 13.5459 214.906 13.5459H189.617V58.6773H204.308V41.4328H214.906C215.116 41.4328 215.331 41.4328 215.549 41.4328C217.467 41.4336 219.366 41.0886 221.138 40.4176C222.91 39.7466 224.52 38.7627 225.876 37.5222C227.232 36.2817 228.308 34.8089 229.041 33.1879C229.775 31.567 230.152 29.8297 230.151 28.0753C230.151 20.7017 223.616 13.5459 215.549 13.5459ZM203.652 31.3794V23.5993H210.483C210.611 23.5993 210.74 23.5993 210.869 23.5993C213.393 23.776 215.376 25.1129 215.376 27.4687C215.376 29.8245 213.393 31.1673 210.869 31.344L203.652 31.3794Z" fill="#0184EF"/>
<path d="M249.994 13.54H235.958V58.6773H249.994V13.54Z" fill="#0184EF"/>
<path d="M92.8189 13.6873C92.3781 10.2423 91.4071 6.87152 89.9346 3.67515C89.7672 3.33945 87.3594 0.188558 87.4431 0.029541C83.5222 10.0535 77.9017 15.2775 77.9017 15.2775C74.5336 14.0121 70.9008 13.4452 67.2646 13.6174C63.6284 13.7896 60.0791 14.6967 56.8718 16.2735C53.6646 17.8503 50.8791 20.0576 48.7157 22.7368C46.5523 25.4159 45.0646 28.5002 44.3598 31.768C43.655 35.0358 43.7504 38.4059 44.6392 41.6359C45.5281 44.866 47.1883 47.8757 49.5004 50.4488C51.8126 53.0218 54.7192 55.0942 58.0114 56.517C61.3036 57.9398 64.8995 58.6776 68.5406 58.6774C74.6067 58.6307 80.445 56.5574 84.9566 52.8478C89.4683 49.1382 92.3423 44.048 93.0378 38.5352C93.5464 34.1652 93.643 29.6597 93.7267 25.272C93.7495 21.3949 93.446 17.5219 92.8189 13.6873ZM61.5166 34.7129C62.0059 30.7493 65.5662 27.8693 69.4742 28.2698C73.3821 28.6703 76.1505 32.204 75.6612 36.1676C75.1719 40.1313 71.6181 42.9936 67.7101 42.6049C63.8021 42.2162 61.0337 38.6707 61.5166 34.7129ZM85.0481 48.3236C83.474 50.287 81.4809 51.938 79.1893 53.1766C76.888 54.3954 74.3242 55.141 71.676 55.3616C69.0727 55.5533 66.4532 55.3016 63.9502 54.6195C66.4874 54.8404 69.0443 54.7831 71.5666 54.4487C74.0257 54.0792 76.3906 53.3028 78.5455 52.1577C80.6992 50.989 82.6248 49.5002 84.2433 47.7523C85.894 45.9747 87.2896 44.0113 88.3959 41.9099C87.7433 44.2256 86.6064 46.4036 85.0481 48.3236Z" fill="black"/>
<path d="M96.4629 45.3494L109.912 43.1055C111.045 46.6392 113.951 48.406 118.629 48.406C122.273 48.406 124.093 47.5089 124.089 45.7145C124.103 45.2774 123.991 44.8445 123.765 44.4591C123.539 44.0736 123.207 43.7491 122.801 43.5177C121.964 42.9936 120.458 42.5342 118.295 42.1278C110.032 40.6476 104.723 38.7237 102.367 36.3561C100.061 34.0862 98.7998 31.0912 98.845 27.993C98.8021 26.0421 99.2339 24.1068 100.109 22.3273C100.984 20.5479 102.281 18.9686 103.905 17.704C107.288 14.9555 112.146 13.5813 118.481 13.5813C128.1 13.5813 134.452 17.1602 137.538 24.3179L125.544 27.6808C124.299 24.7557 121.776 23.2931 117.973 23.2931C114.809 23.2931 113.23 24.2001 113.234 26.0141C113.218 26.3869 113.308 26.757 113.496 27.0884C113.683 27.4198 113.961 27.701 114.303 27.9046C115.02 28.3522 116.404 28.7782 118.456 29.1826C124.108 30.2899 128.121 31.2715 130.495 32.1274C132.911 33.0133 134.981 34.5417 136.437 36.5151C138.054 38.6542 138.891 41.2063 138.826 43.8063C138.88 45.8943 138.381 47.9632 137.372 49.8367C136.363 51.7102 134.874 53.3329 133.032 54.5665C129.169 57.3149 124.087 58.6891 117.786 58.6891C106.27 58.6813 99.1626 54.2347 96.4629 45.3494Z" fill="black"/>
<path d="M28.579 41.315L42.0605 41.4622C41.4167 46.8217 39.2534 51.5215 35.5322 54.3838C31.8109 57.2461 27.2463 58.6773 21.8253 58.6773C15.2971 58.6773 10.0285 56.7141 6.01968 52.7877C2.01085 48.8614 0.0042921 43.4372 0 36.515C0 29.6557 1.9014 24.1215 5.70421 19.9124C9.50701 15.7034 14.8099 13.5989 21.6129 13.5989C27.9738 13.5989 32.8603 15.2008 36.2726 18.4047C39.6848 21.6086 41.6162 25.8589 42.0669 31.1555L28.3279 31.8328C28.3279 28.9077 27.712 26.7934 26.4801 25.4898C25.9572 24.8878 25.2926 24.4015 24.5357 24.067C23.7788 23.7325 22.9492 23.5586 22.1086 23.5581C17.4603 23.5581 15.1361 27.8005 15.1361 36.2853C15.1361 41.044 15.7413 44.2794 16.9517 45.9912C17.4731 46.794 18.2196 47.4548 19.1137 47.9052C20.0079 48.3556 21.0174 48.5793 22.0378 48.5532C25.935 48.5532 28.1154 46.1404 28.579 41.315Z" fill="black"/>
<path d="M7.67428 72.5236L8.47904 72.7239C8.35323 73.2985 8.02538 73.8197 7.54551 74.208C7.08545 74.5429 6.51077 74.7181 5.9231 74.7028C5.42786 74.719 4.93746 74.6088 4.5067 74.3847C4.07241 74.1258 3.73185 73.7548 3.5281 73.3187C3.26325 72.7743 3.13352 72.183 3.14825 71.5872C3.12953 71.012 3.25969 70.4409 3.5281 69.9205C3.75214 69.5013 4.10295 69.1497 4.53889 68.9075C4.97769 68.6721 5.47889 68.5519 5.98748 68.56C6.52867 68.5479 7.0588 68.7013 7.49401 68.9958C7.93706 69.3262 8.24736 69.782 8.37603 70.2915L7.59058 70.4741C7.52761 70.1246 7.33011 69.8073 7.03376 69.5794C6.73741 69.3515 6.36174 69.2281 5.9746 69.2314C5.60553 69.2223 5.24134 69.3102 4.92518 69.4846C4.60923 69.6729 4.36248 69.9438 4.21699 70.2621C4.0271 70.6878 3.93716 71.1453 3.95302 71.6049C3.91411 72.2507 4.10868 72.8902 4.5067 73.4247C4.67519 73.6182 4.89138 73.7725 5.13757 73.8748C5.38375 73.9772 5.65294 74.0248 5.9231 74.0137C6.33856 74.0195 6.74186 73.8853 7.05621 73.6368C7.38814 73.3364 7.60495 72.946 7.67428 72.5236Z" fill="black"/>
<path d="M17.016 71.7051C16.9521 70.8514 17.2495 70.0079 17.8466 69.3493C18.1062 69.0847 18.4253 68.8745 18.782 68.7332C19.1387 68.5919 19.5246 68.5228 19.9132 68.5306C20.4283 68.5234 20.9351 68.6501 21.3747 68.8958C21.8276 69.1515 22.1898 69.5218 22.4177 69.9618C22.688 70.4797 22.8204 71.0489 22.8039 71.6226C22.8409 72.4011 22.5764 73.1665 22.0571 73.7841C21.7962 74.075 21.468 74.3094 21.0962 74.4703C20.7244 74.6312 20.3181 74.7147 19.9068 74.7147C19.4954 74.7147 19.0892 74.6312 18.7173 74.4703C18.3455 74.3094 18.0173 74.075 17.7564 73.7841C17.2546 73.1901 16.993 72.4555 17.016 71.7051ZM17.8401 71.7051C17.7999 72.3256 18.0159 72.9372 18.4453 73.4189C18.6266 73.6129 18.8517 73.7686 19.1051 73.8754C19.3585 73.9822 19.6342 74.0375 19.9132 74.0375C20.1922 74.0375 20.4679 73.9822 20.7213 73.8754C20.9747 73.7686 21.1998 73.6129 21.3811 73.4189C21.8173 72.9042 22.0305 72.2604 21.9799 71.6108C21.9885 71.1363 21.883 70.6658 21.6708 70.2327C21.5161 69.9269 21.2691 69.668 20.9588 69.4864C20.6485 69.3048 20.288 69.2082 19.9196 69.2079C19.6388 69.2008 19.3597 69.2498 19.1017 69.3516C18.8438 69.4533 18.6132 69.6052 18.426 69.7969C17.9823 70.3506 17.7741 71.033 17.8401 71.7169V71.7051Z" fill="black"/>
<path d="M31.3152 72.6944L32.0685 72.6296C32.0861 72.9025 32.1816 73.1665 32.3453 73.3952C32.5009 73.5888 32.7097 73.7412 32.9505 73.8369C33.2344 73.9509 33.5419 74.0071 33.8518 74.0018C34.245 74.0229 34.6347 73.9234 34.9592 73.7191C35.0843 73.6355 35.1853 73.5253 35.2537 73.3982C35.3221 73.271 35.3558 73.1305 35.3519 72.9888C35.3572 72.8261 35.3078 72.6657 35.2103 72.5295C35.1031 72.3862 34.9535 72.2738 34.7789 72.2055C34.3738 72.0553 33.9561 71.9352 33.5299 71.8463C33.1029 71.7625 32.691 71.6237 32.3067 71.434C32.0755 71.3043 31.8831 71.1242 31.7465 70.9098C31.6114 70.6887 31.5425 70.4388 31.547 70.1854C31.5412 69.962 31.5903 69.7402 31.6905 69.5363C31.7908 69.3325 31.9398 69.1518 32.1264 69.0075C32.5656 68.6832 33.1208 68.5195 33.6844 68.5481C34.0893 68.5397 34.4914 68.612 34.8626 68.7602C35.1826 68.8949 35.4548 69.1092 35.6481 69.3786C35.8382 69.6645 35.9405 69.9921 35.9442 70.3268L35.1781 70.3857C35.1789 70.2196 35.1428 70.0552 35.0719 69.9023C35.0011 69.7494 34.897 69.6113 34.766 69.4964C34.4659 69.2972 34.0996 69.1994 33.7295 69.2195C33.3638 69.1968 32.9999 69.2836 32.693 69.4669C32.5807 69.538 32.4892 69.6331 32.4263 69.744C32.3635 69.8548 32.3313 69.9781 32.3324 70.103C32.3209 70.2134 32.3388 70.3247 32.3848 70.4273C32.4308 70.5299 32.5034 70.6207 32.5964 70.6919C32.956 70.897 33.3564 71.0351 33.7746 71.0983C34.2138 71.1805 34.6445 71.2968 35.0622 71.4458C35.393 71.5713 35.6817 71.7745 35.8992 72.0347C36.0902 72.2977 36.187 72.6085 36.176 72.9241C36.181 73.2543 36.0779 73.5784 35.8798 73.8546C35.6859 74.1359 35.4061 74.3591 35.0751 74.4966C34.6877 74.6511 34.2678 74.7255 33.8454 74.7145C33.1954 74.7473 32.5559 74.5537 32.0556 74.1726C31.8228 73.9898 31.6361 73.7629 31.5083 73.5077C31.3805 73.2525 31.3146 72.9751 31.3152 72.6944Z" fill="black"/>
<path d="M44.3203 74.6145L46.6509 68.6484H47.5071L49.9858 74.6145H49.0716L48.3634 72.8064H45.7882L45.1443 74.6145H44.3203ZM46.0586 72.1645H48.1188L47.4749 70.5095C47.2818 70.003 47.1402 69.5908 47.05 69.2727C46.9694 69.6606 46.8575 70.0425 46.7152 70.4153L46.0586 72.1645Z" fill="black"/>
<path d="M58.3812 74.6145V68.6484H60.6603C61.059 68.6329 61.4581 68.6706 61.8449 68.7603C62.1901 68.862 62.4859 69.0702 62.6818 69.3493C62.8957 69.6567 63.0033 70.0158 62.9909 70.3799C63.0131 70.8621 62.8335 71.3339 62.4887 71.6992C62.249 71.8888 61.9694 72.0315 61.6671 72.1186C61.3649 72.2057 61.0463 72.2353 60.7311 72.2057H59.1795V74.6322L58.3812 74.6145ZM59.1795 71.4813H60.744C61.1283 71.5125 61.5122 71.4164 61.8256 71.2104C61.9461 71.1074 62.0394 70.9807 62.0985 70.8399C62.1576 70.6991 62.181 70.5479 62.1668 70.3976C62.1722 70.1908 62.1142 69.9868 61.9994 69.8087C61.9087 69.6559 61.7664 69.534 61.5938 69.4612C61.3148 69.3826 61.0225 69.3506 60.7311 69.3669H59.1795V71.4813Z" fill="black"/>
<path d="M71.9399 74.6145V68.6484H72.7512V74.6145H71.9399Z" fill="black"/>
<path d="M91.7437 72.6945L92.5034 72.6297C92.5223 72.9016 92.6152 73.1648 92.7738 73.3954C92.9407 73.5933 93.1632 73.746 93.4176 73.8371C93.6993 73.9509 94.0047 74.0072 94.3125 74.002C94.706 74.0249 95.0963 73.9253 95.4199 73.7193C95.5458 73.6359 95.6478 73.526 95.7172 73.3989C95.7867 73.2717 95.8217 73.1311 95.8191 72.989C95.8213 72.8266 95.7721 72.667 95.6774 72.5296C95.5677 72.3861 95.416 72.2738 95.2396 72.2057C94.8349 72.0545 94.4171 71.9343 93.9906 71.8464C93.5659 71.7618 93.1563 71.623 92.7738 71.4342C92.5384 71.305 92.3439 71.1219 92.2095 70.9029C92.0751 70.6839 92.0056 70.4367 92.0077 70.1856C92.0019 69.9621 92.051 69.7403 92.1513 69.5365C92.2515 69.3326 92.4005 69.1519 92.5871 69.0077C93.0272 68.6848 93.5818 68.5213 94.1451 68.5483C94.5521 68.5405 94.9561 68.6128 95.3298 68.7603C95.6498 68.8951 95.9219 69.1093 96.1152 69.3787C96.3025 69.6658 96.4046 69.9927 96.4114 70.3269L95.6388 70.3858C95.6345 70.2229 95.5947 70.0624 95.5217 69.9138C95.4488 69.7651 95.3441 69.6313 95.2139 69.5201C94.9113 69.3209 94.543 69.2232 94.1709 69.2433C93.8053 69.2213 93.4417 69.3081 93.1344 69.4906C93.0229 69.562 92.9323 69.6573 92.8706 69.7682C92.8088 69.8791 92.7778 70.0022 92.7803 70.1267C92.767 70.2372 92.7842 70.349 92.8303 70.4519C92.8764 70.5548 92.9499 70.6454 93.0442 70.7156C93.4024 70.9192 93.8003 71.0572 94.216 71.122C94.6553 71.2039 95.0861 71.3201 95.5036 71.4695C95.8336 71.5934 96.1207 71.797 96.3341 72.0584C96.527 72.3209 96.626 72.6316 96.6174 72.9478C96.6224 73.278 96.5193 73.6021 96.3212 73.8783C96.1243 74.1572 95.8453 74.3797 95.5165 74.5203C95.1291 74.6748 94.7092 74.7492 94.2868 74.7382C93.6368 74.771 92.9973 74.5774 92.497 74.1963C92.2602 74.0107 92.0702 73.7803 91.9402 73.521C91.8102 73.2618 91.7431 72.9798 91.7437 72.6945Z" fill="black"/>
<path d="M105.431 74.6145V68.6484H109.803V69.3493H106.23V71.175H109.571V71.8523H106.23V73.8842H109.938V74.591L105.431 74.6145Z" fill="black"/>
<path d="M118.816 74.6145V68.6484H121.494C121.916 68.6273 122.339 68.6833 122.737 68.8133C123.007 68.9351 123.231 69.1279 123.381 69.3669C123.553 69.6408 123.642 69.952 123.638 70.268C123.648 70.468 123.614 70.6677 123.539 70.8557C123.464 71.0437 123.349 71.2162 123.201 71.3635C122.851 71.6722 122.397 71.8615 121.913 71.8994C122.103 71.9829 122.277 72.0943 122.428 72.2292C122.673 72.4597 122.889 72.7145 123.072 72.989L124.128 74.6145H123.123L122.325 73.3718C122.119 73.0283 121.882 72.7012 121.617 72.3941C121.495 72.2494 121.339 72.1325 121.16 72.0525C120.954 71.9837 120.735 71.9537 120.516 71.9642H119.589V74.6145H118.816ZM119.614 71.281H121.333C121.624 71.2942 121.915 71.2562 122.19 71.1691C122.38 71.0998 122.542 70.9784 122.653 70.8216C122.767 70.6583 122.825 70.4676 122.821 70.2739C122.827 70.1408 122.802 70.0081 122.746 69.885C122.69 69.7618 122.606 69.6514 122.499 69.5613C122.217 69.3747 121.873 69.285 121.527 69.308H119.595L119.614 71.281Z" fill="black"/>
<path d="M134.268 74.6145L131.924 68.6484H132.787L134.364 72.9831C134.487 73.3188 134.59 73.6428 134.68 73.9608C134.776 73.631 134.886 73.3071 135.002 72.9831L136.643 68.6484H137.455L135.092 74.6145H134.268Z" fill="black"/>
<path d="M146.088 74.6145V68.6484H146.886V74.6145H146.088Z" fill="black"/>
<path d="M160.342 72.5236L161.147 72.7239C161.027 73.3037 160.698 73.8302 160.213 74.2198C159.753 74.5547 159.179 74.7299 158.591 74.7145C158.088 74.7298 157.591 74.6156 157.155 74.3847C156.725 74.1236 156.387 73.7531 156.183 73.3187C155.915 72.7751 155.786 72.1832 155.803 71.5872C155.782 71.0118 155.912 70.44 156.183 69.9205C156.405 69.4896 156.764 69.1302 157.213 68.8898C157.652 68.6544 158.153 68.5342 158.662 68.5423C159.203 68.5312 159.733 68.6844 160.168 68.9781C160.61 69.31 160.92 69.7652 161.05 70.2738L160.265 70.4564C160.201 70.1065 160.002 69.7891 159.704 69.5612C159.407 69.3334 159.03 69.2102 158.643 69.2137C158.276 69.2058 157.914 69.2936 157.6 69.467C157.282 69.6536 157.035 69.925 156.891 70.2444C156.698 70.6693 156.608 71.1274 156.627 71.5872C156.572 72.2374 156.761 72.8854 157.162 73.4247C157.33 73.6186 157.546 73.7731 157.792 73.8755C158.039 73.9779 158.308 74.0253 158.578 74.0137C158.992 74.0197 159.393 73.8854 159.705 73.6368C160.046 73.3405 160.27 72.949 160.342 72.5236Z" fill="black"/>
<path d="M170.064 74.6145V68.6484H170.869V74.6145H170.064Z" fill="black"/>
<path d="M179.805 71.7051C179.741 70.8514 180.038 70.0079 180.635 69.3493C180.895 69.0847 181.214 68.8745 181.571 68.7332C181.927 68.5919 182.313 68.5228 182.702 68.5306C183.226 68.5229 183.741 68.6539 184.185 68.9078C184.63 69.1617 184.984 69.5277 185.206 69.9618C185.477 70.4797 185.609 71.0489 185.593 71.6226C185.63 72.4011 185.365 73.1665 184.846 73.7841C184.591 74.0802 184.263 74.3175 183.89 74.477C183.517 74.6365 183.107 74.7139 182.696 74.7028C182.281 74.716 181.868 74.6371 181.494 74.4731C181.12 74.309 180.794 74.0645 180.545 73.7605C180.047 73.174 179.785 72.4478 179.805 71.7051ZM180.629 71.7051C180.585 72.3259 180.802 72.9387 181.234 73.4189C181.415 73.6129 181.64 73.7686 181.894 73.8754C182.147 73.9822 182.423 74.0375 182.702 74.0375C182.981 74.0375 183.257 73.9822 183.51 73.8754C183.763 73.7686 183.989 73.6129 184.17 73.4189C184.604 72.9034 184.815 72.2597 184.762 71.6108C184.773 71.1367 184.67 70.6663 184.46 70.2327C184.302 69.9303 184.055 69.675 183.745 69.4965C183.438 69.3105 183.077 69.2121 182.708 69.2138C182.428 69.2067 182.148 69.2557 181.89 69.3574C181.633 69.4592 181.402 69.6111 181.215 69.8028C180.773 70.3549 180.564 71.035 180.629 71.7169V71.7051Z" fill="black"/>
<path d="M194.104 72.6945L194.857 72.6297C194.876 72.9016 194.969 73.1648 195.128 73.3954C195.286 73.5891 195.497 73.7415 195.739 73.8371C196.021 73.9509 196.326 74.0072 196.634 74.002C197.029 74.0239 197.421 73.9244 197.748 73.7193C197.872 73.6346 197.972 73.5243 198.04 73.3973C198.109 73.2704 198.143 73.1304 198.141 72.989C198.143 72.8266 198.094 72.667 197.999 72.5296C197.889 72.3861 197.738 72.2738 197.561 72.2057C197.156 72.0545 196.739 71.9343 196.312 71.8464C195.888 71.7618 195.478 71.623 195.095 71.4342C194.864 71.3044 194.672 71.1243 194.535 70.91C194.398 70.6893 194.327 70.4394 194.329 70.1856C194.324 69.9621 194.373 69.7403 194.473 69.5365C194.573 69.3326 194.722 69.1519 194.909 69.0077C195.349 68.6848 195.903 68.5213 196.467 68.5483C196.874 68.5405 197.278 68.6128 197.651 68.7603C197.971 68.8951 198.244 69.1093 198.437 69.3787C198.624 69.6658 198.726 69.9927 198.733 70.3269L197.967 70.3858C197.954 70.0565 197.799 69.7453 197.535 69.5201C197.233 69.3209 196.865 69.2232 196.493 69.2433C196.127 69.2213 195.763 69.3081 195.456 69.4906C195.344 69.562 195.254 69.6573 195.192 69.7682C195.13 69.8791 195.099 70.0022 195.102 70.1267C195.09 70.2371 195.108 70.3484 195.154 70.451C195.2 70.5536 195.273 70.6444 195.366 70.7156C195.724 70.9192 196.122 71.0572 196.538 71.122C196.977 71.2039 197.408 71.3201 197.825 71.4695C198.155 71.5934 198.442 71.797 198.656 72.0584C198.851 72.3196 198.951 72.6313 198.939 72.9478C198.944 73.278 198.841 73.6021 198.643 73.8783C198.447 74.1585 198.168 74.3814 197.838 74.5203C197.451 74.6748 197.031 74.7492 196.608 74.7382C195.958 74.771 195.319 74.5774 194.819 74.1963C194.587 74.0087 194.403 73.7771 194.28 73.5177C194.156 73.2583 194.096 72.9773 194.104 72.6945Z" fill="black"/>
<path d="M222.181 72.5237L222.986 72.7239C222.86 73.2986 222.532 73.8198 222.052 74.2081C221.592 74.5429 221.017 74.7182 220.43 74.7028C219.918 74.7326 219.409 74.6136 218.975 74.363C218.541 74.1123 218.206 73.7427 218.015 73.307C217.75 72.7626 217.621 72.1712 217.635 71.5755C217.617 71.0003 217.747 70.4292 218.015 69.9087C218.241 69.4807 218.599 69.1224 219.045 68.8781C219.487 68.6434 219.99 68.5232 220.5 68.5306C221.039 68.5194 221.567 68.6728 222 68.9664C222.446 69.295 222.757 69.7516 222.882 70.2621L222.097 70.4447C222.035 70.0947 221.838 69.7767 221.542 69.5486C221.245 69.3205 220.869 69.1975 220.481 69.202C220.112 69.1929 219.748 69.2808 219.432 69.4553C219.118 69.6442 218.873 69.915 218.73 70.2327C218.537 70.6576 218.447 71.1157 218.466 71.5755C218.415 72.2245 218.601 72.8707 218.994 73.413C219.163 73.607 219.381 73.7615 219.628 73.8638C219.875 73.9662 220.146 74.0135 220.417 74.002C220.83 74.0069 221.231 73.8727 221.543 73.625C221.88 73.3303 222.103 72.944 222.181 72.5237Z" fill="black"/>
<path d="M231.877 74.6144V73.7781H232.72V74.6144H231.877Z" fill="black"/>
<path d="M241.206 74.6145L243.536 68.6484H244.392L246.871 74.6145H245.938L245.236 72.8064H242.718L242.075 74.6145H241.206ZM242.937 72.1645H244.998L244.354 70.5095C244.154 70.003 244.013 69.5908 243.922 69.2727C243.844 69.6605 243.734 70.0424 243.594 70.4153L242.937 72.1645Z" fill="black"/>
<path d="M7.67428 72.5236L8.47904 72.7239C8.35323 73.2985 8.02538 73.8197 7.54551 74.208C7.08545 74.5429 6.51077 74.7181 5.9231 74.7028C5.42786 74.719 4.93746 74.6088 4.5067 74.3847C4.07241 74.1258 3.73185 73.7548 3.5281 73.3187C3.26325 72.7743 3.13352 72.183 3.14825 71.5872C3.12953 71.012 3.25969 70.4409 3.5281 69.9205C3.75214 69.5013 4.10295 69.1497 4.53889 68.9075C4.97769 68.6721 5.47889 68.5519 5.98748 68.56C6.52867 68.5479 7.0588 68.7013 7.49401 68.9958C7.93706 69.3262 8.24736 69.782 8.37603 70.2915L7.59058 70.4741C7.52761 70.1246 7.33011 69.8073 7.03376 69.5794C6.73741 69.3515 6.36174 69.2281 5.9746 69.2314C5.60553 69.2223 5.24134 69.3102 4.92518 69.4846C4.60923 69.6729 4.36248 69.9438 4.21699 70.2621C4.0271 70.6878 3.93716 71.1453 3.95302 71.6049C3.91411 72.2507 4.10868 72.8902 4.5067 73.4247C4.67519 73.6182 4.89138 73.7725 5.13757 73.8748C5.38375 73.9772 5.65294 74.0248 5.9231 74.0137C6.33856 74.0195 6.74186 73.8853 7.05621 73.6368C7.38814 73.3364 7.60495 72.946 7.67428 72.5236Z" fill="black"/>
<path d="M17.016 71.7051C16.9521 70.8514 17.2495 70.0079 17.8466 69.3493C18.1062 69.0847 18.4253 68.8745 18.782 68.7332C19.1387 68.5919 19.5246 68.5228 19.9132 68.5306C20.4283 68.5234 20.9351 68.6501 21.3747 68.8958C21.8276 69.1515 22.1898 69.5218 22.4177 69.9618C22.688 70.4797 22.8204 71.0489 22.8039 71.6226C22.8409 72.4011 22.5764 73.1665 22.0571 73.7841C21.7962 74.075 21.468 74.3094 21.0962 74.4703C20.7244 74.6312 20.3181 74.7147 19.9068 74.7147C19.4954 74.7147 19.0892 74.6312 18.7173 74.4703C18.3455 74.3094 18.0173 74.075 17.7564 73.7841C17.2546 73.1901 16.993 72.4555 17.016 71.7051ZM17.8401 71.7051C17.7999 72.3256 18.0159 72.9372 18.4453 73.4189C18.6266 73.6129 18.8517 73.7686 19.1051 73.8754C19.3585 73.9822 19.6342 74.0375 19.9132 74.0375C20.1922 74.0375 20.4679 73.9822 20.7213 73.8754C20.9747 73.7686 21.1998 73.6129 21.3811 73.4189C21.8173 72.9042 22.0305 72.2604 21.9799 71.6108C21.9885 71.1363 21.883 70.6658 21.6708 70.2327C21.5161 69.9269 21.2691 69.668 20.9588 69.4864C20.6485 69.3048 20.288 69.2082 19.9196 69.2079C19.6388 69.2008 19.3597 69.2498 19.1017 69.3516C18.8438 69.4533 18.6132 69.6052 18.426 69.7969C17.9823 70.3506 17.7741 71.033 17.8401 71.7169V71.7051Z" fill="black"/>
<path d="M31.3152 72.6944L32.0685 72.6296C32.0861 72.9025 32.1816 73.1665 32.3453 73.3952C32.5009 73.5888 32.7097 73.7412 32.9505 73.8369C33.2344 73.9509 33.5419 74.0071 33.8518 74.0018C34.245 74.0229 34.6347 73.9234 34.9592 73.7191C35.0843 73.6355 35.1853 73.5253 35.2537 73.3982C35.3221 73.271 35.3558 73.1305 35.3519 72.9888C35.3572 72.8261 35.3078 72.6657 35.2103 72.5295C35.1031 72.3862 34.9535 72.2738 34.7789 72.2055C34.3738 72.0553 33.9561 71.9352 33.5299 71.8463C33.1029 71.7625 32.691 71.6237 32.3067 71.434C32.0755 71.3043 31.8831 71.1242 31.7465 70.9098C31.6114 70.6887 31.5425 70.4388 31.547 70.1854C31.5412 69.962 31.5903 69.7402 31.6905 69.5363C31.7908 69.3325 31.9398 69.1518 32.1264 69.0075C32.5656 68.6832 33.1208 68.5195 33.6844 68.5481C34.0893 68.5397 34.4914 68.612 34.8626 68.7602C35.1826 68.8949 35.4548 69.1092 35.6481 69.3786C35.8382 69.6645 35.9405 69.9921 35.9442 70.3268L35.1781 70.3857C35.1789 70.2196 35.1428 70.0552 35.0719 69.9023C35.0011 69.7494 34.897 69.6113 34.766 69.4964C34.4659 69.2972 34.0996 69.1994 33.7295 69.2195C33.3638 69.1968 32.9999 69.2836 32.693 69.4669C32.5807 69.538 32.4892 69.6331 32.4263 69.744C32.3635 69.8548 32.3313 69.9781 32.3324 70.103C32.3209 70.2134 32.3388 70.3247 32.3848 70.4273C32.4308 70.5299 32.5034 70.6207 32.5964 70.6919C32.956 70.897 33.3564 71.0351 33.7746 71.0983C34.2138 71.1805 34.6445 71.2968 35.0622 71.4458C35.393 71.5713 35.6817 71.7745 35.8992 72.0347C36.0902 72.2977 36.187 72.6085 36.176 72.9241C36.181 73.2543 36.0779 73.5784 35.8798 73.8546C35.6859 74.1359 35.4061 74.3591 35.0751 74.4966C34.6877 74.6511 34.2678 74.7255 33.8454 74.7145C33.1954 74.7473 32.5559 74.5537 32.0556 74.1726C31.8228 73.9898 31.6361 73.7629 31.5083 73.5077C31.3805 73.2525 31.3146 72.9751 31.3152 72.6944Z" fill="black"/>
<path d="M44.3203 74.6145L46.6509 68.6484H47.5071L49.9858 74.6145H49.0716L48.3634 72.8064H45.7882L45.1443 74.6145H44.3203ZM46.0586 72.1645H48.1188L47.4749 70.5095C47.2818 70.003 47.1402 69.5908 47.05 69.2727C46.9694 69.6606 46.8575 70.0425 46.7152 70.4153L46.0586 72.1645Z" fill="black"/>
<path d="M58.3812 74.6145V68.6484H60.6603C61.059 68.6329 61.4581 68.6706 61.8449 68.7603C62.1901 68.862 62.4859 69.0702 62.6818 69.3493C62.8957 69.6567 63.0033 70.0158 62.9909 70.3799C63.0131 70.8621 62.8335 71.3339 62.4887 71.6992C62.249 71.8888 61.9694 72.0315 61.6671 72.1186C61.3649 72.2057 61.0463 72.2353 60.7311 72.2057H59.1795V74.6322L58.3812 74.6145ZM59.1795 71.4813H60.744C61.1283 71.5125 61.5122 71.4164 61.8256 71.2104C61.9461 71.1074 62.0394 70.9807 62.0985 70.8399C62.1576 70.6991 62.181 70.5479 62.1668 70.3976C62.1722 70.1908 62.1142 69.9868 61.9994 69.8087C61.9087 69.6559 61.7664 69.534 61.5938 69.4612C61.3148 69.3826 61.0225 69.3506 60.7311 69.3669H59.1795V71.4813Z" fill="black"/>
<path d="M71.9399 74.6145V68.6484H72.7512V74.6145H71.9399Z" fill="black"/>
<path d="M91.7437 72.6945L92.5034 72.6297C92.5223 72.9016 92.6152 73.1648 92.7738 73.3954C92.9407 73.5933 93.1632 73.746 93.4176 73.8371C93.6993 73.9509 94.0047 74.0072 94.3125 74.002C94.706 74.0249 95.0963 73.9253 95.4199 73.7193C95.5458 73.6359 95.6478 73.526 95.7172 73.3989C95.7867 73.2717 95.8217 73.1311 95.8191 72.989C95.8213 72.8266 95.7721 72.667 95.6774 72.5296C95.5677 72.3861 95.416 72.2738 95.2396 72.2057C94.8349 72.0545 94.4171 71.9343 93.9906 71.8464C93.5659 71.7618 93.1563 71.623 92.7738 71.4342C92.5384 71.305 92.3439 71.1219 92.2095 70.9029C92.0751 70.6839 92.0056 70.4367 92.0077 70.1856C92.0019 69.9621 92.051 69.7403 92.1513 69.5365C92.2515 69.3326 92.4005 69.1519 92.5871 69.0077C93.0272 68.6848 93.5818 68.5213 94.1451 68.5483C94.5521 68.5405 94.9561 68.6128 95.3298 68.7603C95.6498 68.8951 95.9219 69.1093 96.1152 69.3787C96.3025 69.6658 96.4046 69.9927 96.4114 70.3269L95.6388 70.3858C95.6345 70.2229 95.5947 70.0624 95.5217 69.9138C95.4488 69.7651 95.3441 69.6313 95.2139 69.5201C94.9113 69.3209 94.543 69.2232 94.1709 69.2433C93.8053 69.2213 93.4417 69.3081 93.1344 69.4906C93.0229 69.562 92.9323 69.6573 92.8706 69.7682C92.8088 69.8791 92.7778 70.0022 92.7803 70.1267C92.767 70.2372 92.7842 70.349 92.8303 70.4519C92.8764 70.5548 92.9499 70.6454 93.0442 70.7156C93.4024 70.9192 93.8003 71.0572 94.216 71.122C94.6553 71.2039 95.0861 71.3201 95.5036 71.4695C95.8336 71.5934 96.1207 71.797 96.3341 72.0584C96.527 72.3209 96.626 72.6316 96.6174 72.9478C96.6224 73.278 96.5193 73.6021 96.3212 73.8783C96.1243 74.1572 95.8453 74.3797 95.5165 74.5203C95.1291 74.6748 94.7092 74.7492 94.2868 74.7382C93.6368 74.771 92.9973 74.5774 92.497 74.1963C92.2602 74.0107 92.0702 73.7803 91.9402 73.521C91.8102 73.2618 91.7431 72.9798 91.7437 72.6945Z" fill="black"/>
<path d="M105.431 74.6145V68.6484H109.803V69.3493H106.23V71.175H109.571V71.8523H106.23V73.8842H109.938V74.591L105.431 74.6145Z" fill="black"/>
<path d="M118.816 74.6145V68.6484H121.494C121.916 68.6273 122.339 68.6833 122.737 68.8133C123.007 68.9351 123.231 69.1279 123.381 69.3669C123.553 69.6408 123.642 69.952 123.638 70.268C123.648 70.468 123.614 70.6677 123.539 70.8557C123.464 71.0437 123.349 71.2162 123.201 71.3635C122.851 71.6722 122.397 71.8615 121.913 71.8994C122.103 71.9829 122.277 72.0943 122.428 72.2292C122.673 72.4597 122.889 72.7145 123.072 72.989L124.128 74.6145H123.123L122.325 73.3718C122.119 73.0283 121.882 72.7012 121.617 72.3941C121.495 72.2494 121.339 72.1325 121.16 72.0525C120.954 71.9837 120.735 71.9537 120.516 71.9642H119.589V74.6145H118.816ZM119.614 71.281H121.333C121.624 71.2942 121.915 71.2562 122.19 71.1691C122.38 71.0998 122.542 70.9784 122.653 70.8216C122.767 70.6583 122.825 70.4676 122.821 70.2739C122.827 70.1408 122.802 70.0081 122.746 69.885C122.69 69.7618 122.606 69.6514 122.499 69.5613C122.217 69.3747 121.873 69.285 121.527 69.308H119.595L119.614 71.281Z" fill="black"/>
<path d="M134.268 74.6145L131.924 68.6484H132.787L134.364 72.9831C134.487 73.3188 134.59 73.6428 134.68 73.9608C134.776 73.631 134.886 73.3071 135.002 72.9831L136.643 68.6484H137.455L135.092 74.6145H134.268Z" fill="black"/>
<path d="M146.088 74.6145V68.6484H146.886V74.6145H146.088Z" fill="black"/>
<path d="M160.342 72.5236L161.147 72.7239C161.027 73.3037 160.698 73.8302 160.213 74.2198C159.753 74.5547 159.179 74.7299 158.591 74.7145C158.088 74.7298 157.591 74.6156 157.155 74.3847C156.725 74.1236 156.387 73.7531 156.183 73.3187C155.915 72.7751 155.786 72.1832 155.803 71.5872C155.782 71.0118 155.912 70.44 156.183 69.9205C156.405 69.4896 156.764 69.1302 157.213 68.8898C157.652 68.6544 158.153 68.5342 158.662 68.5423C159.203 68.5312 159.733 68.6844 160.168 68.9781C160.61 69.31 160.92 69.7652 161.05 70.2738L160.265 70.4564C160.201 70.1065 160.002 69.7891 159.704 69.5612C159.407 69.3334 159.03 69.2102 158.643 69.2137C158.276 69.2058 157.914 69.2936 157.6 69.467C157.282 69.6536 157.035 69.925 156.891 70.2444C156.698 70.6693 156.608 71.1274 156.627 71.5872C156.572 72.2374 156.761 72.8854 157.162 73.4247C157.33 73.6186 157.546 73.7731 157.792 73.8755C158.039 73.9779 158.308 74.0253 158.578 74.0137C158.992 74.0197 159.393 73.8854 159.705 73.6368C160.046 73.3405 160.27 72.949 160.342 72.5236Z" fill="black"/>
<path d="M170.064 74.6145V68.6484H170.869V74.6145H170.064Z" fill="black"/>
<path d="M179.805 71.7051C179.741 70.8514 180.038 70.0079 180.635 69.3493C180.895 69.0847 181.214 68.8745 181.571 68.7332C181.927 68.5919 182.313 68.5228 182.702 68.5306C183.226 68.5229 183.741 68.6539 184.185 68.9078C184.63 69.1617 184.984 69.5277 185.206 69.9618C185.477 70.4797 185.609 71.0489 185.593 71.6226C185.63 72.4011 185.365 73.1665 184.846 73.7841C184.591 74.0802 184.263 74.3175 183.89 74.477C183.517 74.6365 183.107 74.7139 182.696 74.7028C182.281 74.716 181.868 74.6371 181.494 74.4731C181.12 74.309 180.794 74.0645 180.545 73.7605C180.047 73.174 179.785 72.4478 179.805 71.7051ZM180.629 71.7051C180.585 72.3259 180.802 72.9387 181.234 73.4189C181.415 73.6129 181.64 73.7686 181.894 73.8754C182.147 73.9822 182.423 74.0375 182.702 74.0375C182.981 74.0375 183.257 73.9822 183.51 73.8754C183.763 73.7686 183.989 73.6129 184.17 73.4189C184.604 72.9034 184.815 72.2597 184.762 71.6108C184.773 71.1367 184.67 70.6663 184.46 70.2327C184.302 69.9303 184.055 69.675 183.745 69.4965C183.438 69.3105 183.077 69.2121 182.708 69.2138C182.428 69.2067 182.148 69.2557 181.89 69.3574C181.633 69.4592 181.402 69.6111 181.215 69.8028C180.773 70.3549 180.564 71.035 180.629 71.7169V71.7051Z" fill="black"/>
<path d="M194.104 72.6945L194.857 72.6297C194.876 72.9016 194.969 73.1648 195.128 73.3954C195.286 73.5891 195.497 73.7415 195.739 73.8371C196.021 73.9509 196.326 74.0072 196.634 74.002C197.029 74.0239 197.421 73.9244 197.748 73.7193C197.872 73.6346 197.972 73.5243 198.04 73.3973C198.109 73.2704 198.143 73.1304 198.141 72.989C198.143 72.8266 198.094 72.667 197.999 72.5296C197.889 72.3861 197.738 72.2738 197.561 72.2057C197.156 72.0545 196.739 71.9343 196.312 71.8464C195.888 71.7618 195.478 71.623 195.095 71.4342C194.864 71.3044 194.672 71.1243 194.535 70.91C194.398 70.6893 194.327 70.4394 194.329 70.1856C194.324 69.9621 194.373 69.7403 194.473 69.5365C194.573 69.3326 194.722 69.1519 194.909 69.0077C195.349 68.6848 195.903 68.5213 196.467 68.5483C196.874 68.5405 197.278 68.6128 197.651 68.7603C197.971 68.8951 198.244 69.1093 198.437 69.3787C198.624 69.6658 198.726 69.9927 198.733 70.3269L197.967 70.3858C197.954 70.0565 197.799 69.7453 197.535 69.5201C197.233 69.3209 196.865 69.2232 196.493 69.2433C196.127 69.2213 195.763 69.3081 195.456 69.4906C195.344 69.562 195.254 69.6573 195.192 69.7682C195.13 69.8791 195.099 70.0022 195.102 70.1267C195.09 70.2371 195.108 70.3484 195.154 70.451C195.2 70.5536 195.273 70.6444 195.366 70.7156C195.724 70.9192 196.122 71.0572 196.538 71.122C196.977 71.2039 197.408 71.3201 197.825 71.4695C198.155 71.5934 198.442 71.797 198.656 72.0584C198.851 72.3196 198.951 72.6313 198.939 72.9478C198.944 73.278 198.841 73.6021 198.643 73.8783C198.447 74.1585 198.168 74.3814 197.838 74.5203C197.451 74.6748 197.031 74.7492 196.608 74.7382C195.958 74.771 195.319 74.5774 194.819 74.1963C194.587 74.0087 194.403 73.7771 194.28 73.5177C194.156 73.2583 194.096 72.9773 194.104 72.6945Z" fill="black"/>
<path d="M222.181 72.5237L222.986 72.7239C222.86 73.2986 222.532 73.8198 222.052 74.2081C221.592 74.5429 221.017 74.7182 220.43 74.7028C219.918 74.7326 219.409 74.6136 218.975 74.363C218.541 74.1123 218.206 73.7427 218.015 73.307C217.75 72.7626 217.621 72.1712 217.635 71.5755C217.617 71.0003 217.747 70.4292 218.015 69.9087C218.241 69.4807 218.599 69.1224 219.045 68.8781C219.487 68.6434 219.99 68.5232 220.5 68.5306C221.039 68.5194 221.567 68.6728 222 68.9664C222.446 69.295 222.757 69.7516 222.882 70.2621L222.097 70.4447C222.035 70.0947 221.838 69.7767 221.542 69.5486C221.245 69.3205 220.869 69.1975 220.481 69.202C220.112 69.1929 219.748 69.2808 219.432 69.4553C219.118 69.6442 218.873 69.915 218.73 70.2327C218.537 70.6576 218.447 71.1157 218.466 71.5755C218.415 72.2245 218.601 72.8707 218.994 73.413C219.163 73.607 219.381 73.7615 219.628 73.8638C219.875 73.9662 220.146 74.0135 220.417 74.002C220.83 74.0069 221.231 73.8727 221.543 73.625C221.88 73.3303 222.103 72.944 222.181 72.5237Z" fill="black"/>
<path d="M231.877 74.6144V73.7781H232.72V74.6144H231.877Z" fill="black"/>
<path d="M241.206 74.6145L243.536 68.6484H244.392L246.871 74.6145H245.938L245.236 72.8064H242.718L242.075 74.6145H241.206ZM242.937 72.1645H244.998L244.354 70.5095C244.154 70.003 244.013 69.5908 243.922 69.2727C243.844 69.6605 243.734 70.0424 243.594 70.4153L242.937 72.1645Z" fill="black"/>
</g>
<defs>
<clipPath id="clip0_535_15598">
<rect width="250" height="74.7145" fill="white"/>
</clipPath>
</defs>
</svg>
